<?xml version="1.0" encoding="UTF-8" standalone="no"?>
<!-- Created with Inkscape (http://www.inkscape.org/) -->

<svg
   xmlns:dc="http://purl.org/dc/elements/1.1/"
   xmlns:cc="http://creativecommons.org/ns#"
   xmlns:rdf="http://www.w3.org/1999/02/22-rdf-syntax-ns#"
   xmlns:svg="http://www.w3.org/2000/svg"
   xmlns="http://www.w3.org/2000/svg"
   xmlns:sodipodi="http://sodipodi.sourceforge.net/DTD/sodipodi-0.dtd"
   xmlns:inkscape="http://www.inkscape.org/namespaces/inkscape"
   width="256px"
   height="256px"
   viewBox="0 0 256 256"
   version="1.1"
   id="SVGRoot"
   inkscape:version="0.92.4 (5da689c313, 2019-01-14)"
   sodipodi:docname="captured.svg"
   inkscape:export-filename="C:\Users\Roberto Gallotta\captured.png"
   inkscape:export-xdpi="96"
   inkscape:export-ydpi="96">
  <defs
     id="defs10" />
  <sodipodi:namedview
     id="base"
     pagecolor="#ffffff"
     bordercolor="#666666"
     borderopacity="1.0"
     inkscape:pageopacity="0.0"
     inkscape:pageshadow="2"
     inkscape:zoom="2"
     inkscape:cx="15.457323"
     inkscape:cy="124.47518"
     inkscape:document-units="px"
     inkscape:current-layer="layer3"
     showgrid="false"
     inkscape:window-width="1920"
     inkscape:window-height="1017"
     inkscape:window-x="-8"
     inkscape:window-y="-8"
     inkscape:window-maximized="1"
     inkscape:grid-bbox="true" />
  <metadata
     id="metadata13">
    <rdf:RDF>
      <cc:Work
         rdf:about="">
        <dc:format>image/svg+xml</dc:format>
        <dc:type
           rdf:resource="http://purl.org/dc/dcmitype/StillImage" />
        <dc:title></dc:title>
      </cc:Work>
    </rdf:RDF>
  </metadata>
  <g
     inkscape:label="blood"
     inkscape:groupmode="layer"
     id="layer1"
     style="display:none">
    <path
       style="fill:#cc2a2a;fill-opacity:1;stroke:#000000;stroke-width:1px;stroke-linecap:butt;stroke-linejoin:miter;stroke-opacity:1"
       d="m 128,15 c 0,0 -32.5,0 -44,8 C 72.5,31 58.5,48 51.5,51 44.5,54 18.5,80 16,88.5 13.5,97 48.5,62 43,73.5 37.5,85 5.5,132.5 10,139 c 4.5,6.5 33,-18.5 42.5,-12 9.5,6.5 -29,49 -29.5,59 -0.5,10 -26,58.5 -11,51 15,-7.5 44,-69.5 52,-59.5 8,10 -29,45.5 -30,52 -1,6.5 33,-37.5 44,-35.5 11,2 26,-31 33,-27 7,4 -17,38.5 -23.5,40.5 -6.5,2 -26,48 -7.5,28.5 18.5,-19.5 56.5,-61 60,-49 3.5,12 -15.5,23 -19,32 -3.5,9 32,-18 32.5,-21.5 C 154,194 219,111 219,88.5 219,66 257.5,31 242,36 226.5,41 214,83 204.5,71.5 195,60 256,13 241.5,14 c -14.5,1 -59,21 -65,21 -6,0 35,-34.00000013 14,-29.0000001 C 169.5,11 141.5,6.4999999 128,15 Z"
       id="path27"
       inkscape:connector-curvature="0" />
  </g>
  <g
     inkscape:groupmode="layer"
     id="layer2"
     inkscape:label="axe"
     style="display:none">
    <path
       style="fill:#fafafa;fill-opacity:1;stroke:#000000;stroke-width:1px;stroke-linecap:butt;stroke-linejoin:miter;stroke-opacity:1"
       d="m 147.81269,74.635777 79.45303,131.337233 c 0,0 -0.0684,19.34871 -12.40645,7.50533 -12.3381,-11.84338 -80.22944,-132.620654 -80.22944,-132.620654 0,0 -26.33393,21.190184 -26.10134,37.996314 0.23259,16.80613 -80.846332,-42.83831 -51.005152,-42.77528 29.84118,0.06303 53.307072,-31.663965 53.307072,-31.663965 l -5.1761,-8.556171 c 0,0 5.91659,-13.054358 14.11769,-8.540553 8.20109,4.513805 7.69025,7.381907 7.69025,7.381907 0,0 7.52623,3.281515 7.75324,-5.037047 0.22701,-8.318561 20.19736,36.284525 20.19736,36.284525 0,0 -6.42772,0.966612 -7.27274,4.399678"
       id="path840"
       inkscape:connector-curvature="0" />
  </g>
  <g
     inkscape:groupmode="layer"
     id="layer3"
     inkscape:label="image">
    <path
       style="display:inline;fill:#cc2a2a;fill-opacity:1;stroke:#000000;stroke-width:1px;stroke-linecap:butt;stroke-linejoin:miter;stroke-opacity:1"
       d="M 195.25977 10.855469 C 194.40503 10.881104 193.33594 11.041016 192.02344 11.353516 C 171.02344 16.353516 143.02344 11.853516 129.52344 20.353516 C 129.52344 20.353516 97.023438 20.353516 85.523438 28.353516 C 74.023442 36.353516 60.023438 53.353516 53.023438 56.353516 C 46.023438 59.353516 20.023438 85.353516 17.523438 93.853516 C 15.023438 102.35352 50.023438 67.353516 44.523438 78.853516 C 39.023438 90.353516 7.0234375 137.85352 11.523438 144.35352 C 16.023438 150.85352 44.523438 125.85352 54.023438 132.35352 C 63.523438 138.85352 25.023438 181.35352 24.523438 191.35352 C 24.023438 201.35352 -1.4765625 249.85352 13.523438 242.35352 C 28.523438 234.85352 57.523438 172.85352 65.523438 182.85352 C 73.523438 192.85352 36.523438 228.35352 35.523438 234.85352 C 34.523438 241.35352 68.523441 197.35352 79.523438 199.35352 C 90.523438 201.35352 105.52344 168.35352 112.52344 172.35352 C 119.52344 176.35352 95.523438 210.85352 89.023438 212.85352 C 82.523438 214.85352 63.023442 260.85352 81.523438 241.35352 C 100.02344 221.85352 138.02344 180.35352 141.52344 192.35352 C 145.02344 204.35352 126.02344 215.35352 122.52344 224.35352 C 119.02344 233.35352 154.52344 206.35352 155.02344 202.85352 C 155.24032 201.33535 167.59823 184.84605 181.51758 164.83789 C 159.65134 127.99816 136.15234 86.210937 136.15234 86.210938 C 136.15234 86.210938 109.81819 107.4009 110.05078 124.20703 C 110.28337 141.01316 29.205695 81.368611 59.046875 81.431641 C 88.888053 81.494671 112.35352 49.767578 112.35352 49.767578 L 107.17773 41.212891 C 107.17773 41.212891 113.09382 28.15807 121.29492 32.671875 C 129.49601 37.18568 128.98438 40.052734 128.98438 40.052734 C 128.98438 40.052734 136.51127 43.334187 136.73828 35.015625 C 136.96529 26.697064 156.93555 71.300781 156.93555 71.300781 C 156.93555 71.300781 150.50713 72.268106 149.66211 75.701172 L 149.33594 79.990234 L 191.66211 149.95508 C 206.63839 127.54047 220.52344 104.24773 220.52344 93.853516 C 220.52344 71.353516 259.02344 36.353516 243.52344 41.353516 C 228.02344 46.353516 215.52344 88.353516 206.02344 76.853516 C 196.52344 65.353516 257.52344 18.353516 243.02344 19.353516 C 228.52344 20.353516 184.02344 40.353516 178.02344 40.353516 C 172.39844 40.353516 208.08081 10.470947 195.25977 10.855469 z "
       id="path27-9" />
  </g>
</svg>
