<?xml version="1.0" encoding="UTF-8" standalone="no"?>
<!-- Created with Inkscape (http://www.inkscape.org/) -->

<svg
   xmlns:dc="http://purl.org/dc/elements/1.1/"
   xmlns:cc="http://creativecommons.org/ns#"
   xmlns:rdf="http://www.w3.org/1999/02/22-rdf-syntax-ns#"
   xmlns:svg="http://www.w3.org/2000/svg"
   xmlns="http://www.w3.org/2000/svg"
   xmlns:sodipodi="http://sodipodi.sourceforge.net/DTD/sodipodi-0.dtd"
   xmlns:inkscape="http://www.inkscape.org/namespaces/inkscape"
   width="256px"
   height="256px"
   viewBox="0 0 256 256"
   version="1.1"
   id="SVGRoot"
   inkscape:version="0.92.4 (5da689c313, 2019-01-14)"
   sodipodi:docname="move.svg"
   inkscape:export-filename="E:\Documents\VisualStudioProjects\HnefataflAI\TaflWPF\Resources\move.png"
   inkscape:export-xdpi="96"
   inkscape:export-ydpi="96">
  <defs
     id="defs10" />
  <sodipodi:namedview
     id="base"
     pagecolor="#ffffff"
     bordercolor="#666666"
     borderopacity="1.0"
     inkscape:pageopacity="0.0"
     inkscape:pageshadow="2"
     inkscape:zoom="2.8284271"
     inkscape:cx="84.199109"
     inkscape:cy="141.88952"
     inkscape:document-units="px"
     inkscape:current-layer="layer4"
     showgrid="true"
     inkscape:window-width="1920"
     inkscape:window-height="1017"
     inkscape:window-x="-8"
     inkscape:window-y="-8"
     inkscape:window-maximized="1"
     inkscape:grid-bbox="true">
    <inkscape:grid
       type="xygrid"
       id="grid23" />
  </sodipodi:namedview>
  <metadata
     id="metadata13">
    <rdf:RDF>
      <cc:Work
         rdf:about="">
        <dc:format>image/svg+xml</dc:format>
        <dc:type
           rdf:resource="http://purl.org/dc/dcmitype/StillImage" />
        <dc:title />
      </cc:Work>
    </rdf:RDF>
  </metadata>
  <g
     inkscape:label="circle"
     inkscape:groupmode="layer"
     id="layer1"
     style="display:none" />
  <path
     style="fill:#c8ab37;fill-opacity:1;stroke:#ff2a2a;stroke-width:0;stroke-miterlimit:4;stroke-dasharray:none;stroke-dashoffset:0;stroke-opacity:0.97989951"
     d="M 127.5,51 C 84.697932,51 50,85.697932 50,128.5 50,171.30207 84.697932,206 127.5,206 170.30207,206 205,171.30207 205,128.5 205,85.697932 170.30207,51 127.5,51 Z m -0.70711,20.606602 c 37.27922,0 58.66117,19.614177 58.66117,56.893398 0,37.27922 -21.02839,57.60051 -58.30761,57.60051 -37.279224,0 -57.600508,-20.67484 -57.600508,-57.95406 0,-37.279224 19.967731,-56.539848 57.246948,-56.539848 z"
     id="path25"
     inkscape:connector-curvature="0"
     sodipodi:nodetypes="ssssssssss" />
  <g
     inkscape:groupmode="layer"
     id="layer2"
     inkscape:label="cross"
     style="display:none">
    <path
       style="fill:#c8ab37;fill-opacity:1;stroke:none;stroke-width:1px;stroke-linecap:butt;stroke-linejoin:miter;stroke-opacity:1"
       d="m 100,46 h 55 l -5,45 -15,30 30,-15 45,-5 v 55 l -45,-5 -30,-15 15,30 5,45 h -55 l 5,-45 15,-30 -30,15 -45,5 v -55 l 45,5 30,15 -15,-30 z"
       id="path33"
       inkscape:connector-curvature="0"
       sodipodi:nodetypes="ccccccccccccccccccccc" />
  </g>
  <g
     inkscape:groupmode="layer"
     id="layer3"
     inkscape:label="outer_circle"
     style="display:none">
    <circle
       style="fill:#c8ab37;fill-opacity:1;stroke:none;stroke-width:0;stroke-miterlimit:4;stroke-dasharray:none;stroke-dashoffset:0;stroke-opacity:0.97989951"
       id="path847"
       cx="127.5"
       cy="128.5"
       r="22.5" />
  </g>
  <g
     inkscape:groupmode="layer"
     id="layer4"
     inkscape:label="copy">
    <path
       style="fill:#c8c8c8;fill-opacity:1;stroke:#000000;stroke-width:0;stroke-miterlimit:4;stroke-dasharray:none;stroke-dashoffset:0;stroke-opacity:1"
       d="M 100 46 L 101.07031 55.628906 C 79.531539 63.442766 62.442765 80.531539 54.628906 102.07031 L 45 101 L 45 156 L 54.628906 154.92969 C 62.442765 176.46846 79.531539 193.55723 101.07031 201.37109 L 100 211 L 155 211 L 153.92969 201.37109 C 175.46846 193.55723 192.55723 176.46846 200.37109 154.92969 L 210 156 L 210 101 L 200.37109 102.07031 C 192.55723 80.531539 175.46846 63.442766 153.92969 55.628906 L 155 46 L 100 46 z M 103.20703 74.863281 L 105 91 L 114.5625 110.125 A 22.5 22.5 0 0 0 109.11133 115.55664 L 90 106 L 73.076172 104.11914 C 78.04422 89.378524 88.214368 79.572703 103.20703 74.863281 z M 151.74805 75.275391 C 166.29827 80.155052 176.48488 89.86587 181.62109 104.15234 L 165 106 L 145.875 115.5625 A 22.5 22.5 0 0 0 140.44336 110.11133 L 150 91 L 151.74805 75.275391 z M 109.125 141.4375 A 22.5 22.5 0 0 0 114.55664 146.88867 L 105 166 L 103.16406 182.5293 C 88.44795 177.56424 78.331048 167.50167 73.279297 152.85742 L 90 151 L 109.125 141.4375 z M 145.88867 141.44336 L 165 151 L 181.70703 152.85547 C 176.62233 167.4006 166.45763 177.39505 151.82227 182.39453 L 150 166 L 140.4375 146.875 A 22.5 22.5 0 0 0 145.88867 141.44336 z "
       id="path25-4" />
  </g>
</svg>
