<?xml version="1.0" encoding="UTF-8" standalone="no"?>
<!-- Created with Inkscape (http://www.inkscape.org/) -->

<svg
   xmlns:dc="http://purl.org/dc/elements/1.1/"
   xmlns:cc="http://creativecommons.org/ns#"
   xmlns:rdf="http://www.w3.org/1999/02/22-rdf-syntax-ns#"
   xmlns:svg="http://www.w3.org/2000/svg"
   xmlns="http://www.w3.org/2000/svg"
   xmlns:sodipodi="http://sodipodi.sourceforge.net/DTD/sodipodi-0.dtd"
   xmlns:inkscape="http://www.inkscape.org/namespaces/inkscape"
   width="256px"
   height="256px"
   viewBox="0 0 256 256"
   version="1.1"
   id="SVGRoot"
   inkscape:version="0.92.4 (5da689c313, 2019-01-14)"
   sodipodi:docname="win.svg"
   inkscape:export-filename="E:\Documents\VisualStudioProjects\HnefataflAI\TaflWPF\Resources\win.png"
   inkscape:export-xdpi="96"
   inkscape:export-ydpi="96">
  <defs
     id="defs1921" />
  <sodipodi:namedview
     id="base"
     pagecolor="#ffffff"
     bordercolor="#666666"
     borderopacity="1.0"
     inkscape:pageopacity="0.0"
     inkscape:pageshadow="2"
     inkscape:zoom="2"
     inkscape:cx="84.187696"
     inkscape:cy="101.11023"
     inkscape:document-units="px"
     inkscape:current-layer="layer3"
     showgrid="true"
     inkscape:window-width="1920"
     inkscape:window-height="1017"
     inkscape:window-x="-8"
     inkscape:window-y="-8"
     inkscape:window-maximized="1"
     inkscape:grid-bbox="true">
    <inkscape:grid
       type="xygrid"
       id="grid2477" />
  </sodipodi:namedview>
  <metadata
     id="metadata1924">
    <rdf:RDF>
      <cc:Work
         rdf:about="">
        <dc:format>image/svg+xml</dc:format>
        <dc:type
           rdf:resource="http://purl.org/dc/dcmitype/StillImage" />
        <dc:title></dc:title>
      </cc:Work>
    </rdf:RDF>
  </metadata>
  <g
     inkscape:groupmode="layer"
     id="layer2"
     inkscape:label="background"
     style="display:none">
    <ellipse
       style="fill:#aad400;fill-opacity:1;stroke:#000000;stroke-width:0;stroke-miterlimit:4;stroke-dasharray:none;stroke-dashoffset:0;stroke-opacity:1"
       id="path2482"
       cx="55"
       cy="108.5"
       rx="35"
       ry="32.5" />
    <ellipse
       style="fill:#aad400;fill-opacity:1;stroke:#000000;stroke-width:0;stroke-miterlimit:4;stroke-dasharray:none;stroke-dashoffset:0;stroke-opacity:1"
       id="path2484"
       cx="87.5"
       cy="168.5"
       rx="47.5"
       ry="37.5" />
    <ellipse
       style="fill:#aad400;fill-opacity:1;stroke:#000000;stroke-width:0;stroke-miterlimit:4;stroke-dasharray:none;stroke-dashoffset:0;stroke-opacity:1"
       id="path2486"
       cx="142.5"
       cy="121"
       rx="67.5"
       ry="55" />
    <ellipse
       style="fill:#aad400;fill-opacity:1;stroke:#000000;stroke-width:0;stroke-miterlimit:4;stroke-dasharray:none;stroke-dashoffset:0;stroke-opacity:1"
       id="path2488"
       cx="200"
       cy="68.5"
       rx="35"
       ry="37.5" />
    <circle
       style="fill:#aad400;fill-opacity:1;stroke:#000000;stroke-width:0;stroke-miterlimit:4;stroke-dasharray:none;stroke-dashoffset:0;stroke-opacity:1"
       id="path2490"
       cx="115"
       cy="66"
       r="15" />
    <ellipse
       style="fill:#aad400;fill-opacity:1;stroke:#000000;stroke-width:0;stroke-miterlimit:4;stroke-dasharray:none;stroke-dashoffset:0;stroke-opacity:1"
       id="path2492"
       cx="180"
       cy="168.5"
       rx="10"
       ry="7.5" />
    <ellipse
       style="fill:#aad400;fill-opacity:1;stroke:#000000;stroke-width:0;stroke-miterlimit:4;stroke-dasharray:none;stroke-dashoffset:0;stroke-opacity:1"
       id="path2494"
       cx="212.5"
       cy="128.5"
       rx="12.5"
       ry="7.5" />
    <ellipse
       style="fill:#aad400;fill-opacity:1;stroke:#000000;stroke-width:0;stroke-miterlimit:4;stroke-dasharray:none;stroke-dashoffset:0;stroke-opacity:1"
       id="path2496"
       cx="130"
       cy="201"
       rx="45"
       ry="35" />
    <ellipse
       style="fill:#aad400;fill-opacity:1;stroke:#000000;stroke-width:0;stroke-miterlimit:4;stroke-dasharray:none;stroke-dashoffset:0;stroke-opacity:1"
       id="path2498"
       cx="50"
       cy="193.5"
       rx="15"
       ry="12.5" />
    <ellipse
       style="fill:#aad400;fill-opacity:1;stroke:#000000;stroke-width:0;stroke-miterlimit:4;stroke-dasharray:none;stroke-dashoffset:0;stroke-opacity:1"
       id="path2500"
       cx="162.5"
       cy="61"
       rx="17.5"
       ry="15" />
    <circle
       style="fill:#aad400;fill-opacity:1;stroke:#000000;stroke-width:0;stroke-miterlimit:4;stroke-dasharray:none;stroke-dashoffset:0;stroke-opacity:1"
       id="path2502"
       cx="215"
       cy="36"
       r="10" />
    <ellipse
       style="fill:#aad400;fill-opacity:1;stroke:#000000;stroke-width:0;stroke-miterlimit:4;stroke-dasharray:none;stroke-dashoffset:0;stroke-opacity:1"
       id="path2504"
       cx="187.5"
       cy="176"
       rx="27.5"
       ry="20" />
    <circle
       style="fill:#aad400;fill-opacity:1;stroke:#000000;stroke-width:0;stroke-miterlimit:4;stroke-dasharray:none;stroke-dashoffset:0;stroke-opacity:1"
       id="path2506"
       cx="202.5"
       cy="153.5"
       r="12.5" />
    <ellipse
       style="fill:#aad400;fill-opacity:1;stroke:#000000;stroke-width:0;stroke-miterlimit:4;stroke-dasharray:none;stroke-dashoffset:0;stroke-opacity:1"
       id="path2508"
       cx="85"
       cy="206"
       rx="15"
       ry="10" />
    <ellipse
       style="fill:#aad400;fill-opacity:1;stroke:#000000;stroke-width:0;stroke-miterlimit:4;stroke-dasharray:none;stroke-dashoffset:0;stroke-opacity:1"
       id="path2584"
       cx="160"
       cy="173.5"
       rx="15"
       ry="7.5" />
  </g>
  <g
     inkscape:label="checkmark"
     inkscape:groupmode="layer"
     id="layer1"
     style="display:none">
    <path
       style="fill:none;stroke:#000000;stroke-width:1px;stroke-linecap:butt;stroke-linejoin:miter;stroke-opacity:1"
       d="M 35,116 C 49.814701,85.527086 61.232257,73.454477 60,86 c 7.177687,29.83407 8.043167,69.98806 35,95 37.91736,-39.42402 85.65462,-107.118735 100,-155 13.33333,0 40,21.666667 40,35 C 189.32112,105.0327 128.07439,170.71707 90,211 70.463204,179.5733 62.622317,142.01059 35,116"
       id="path2479"
       inkscape:connector-curvature="0"
       sodipodi:nodetypes="ccccccc" />
  </g>
  <g
     inkscape:groupmode="layer"
     id="layer3"
     inkscape:label="final">
    <path
       style="display:inline;fill:#aad400;fill-opacity:1;stroke:#000000;stroke-width:1.88976378;stroke-miterlimit:4;stroke-dasharray:none;stroke-dashoffset:0;stroke-opacity:1"
       d="M 215 26.5 A 10 10 0 0 0 207.49609 29.925781 C 214.5089 33.632252 221.97118 39.528937 227.35352 45.728516 A 35 37.5 0 0 0 223.68164 41.449219 A 10 10 0 0 0 225 36.5 A 10 10 0 0 0 215 26.5 z M 192.95117 32.279297 A 35 37.5 0 0 0 170.83398 48.3125 A 17.5 15 0 0 0 162.5 46.5 A 17.5 15 0 0 0 145 61.5 A 17.5 15 0 0 0 146.07812 66.646484 A 67.5 55 0 0 0 142.5 66.5 A 67.5 55 0 0 0 129.95117 67.498047 A 15 15 0 0 0 130 66.5 A 15 15 0 0 0 115 51.5 A 15 15 0 0 0 100 66.5 A 15 15 0 0 0 103.83984 76.496094 A 67.5 55 0 0 0 85.167969 92.599609 A 35 32.5 0 0 0 55 76.5 A 35 32.5 0 0 0 20 109 A 35 32.5 0 0 0 55 141.5 A 35 32.5 0 0 0 55.029297 141.49805 C 49.527339 132.30131 43.122604 123.64866 35 116 C 49.8147 85.527086 61.23226 73.454477 60 86 C 67.17769 115.83407 68.04317 155.98806 95 181 C 131.2907 143.26728 176.5552 79.648818 192.95117 32.279297 z M 234.30859 61.671875 C 188.70331 105.69877 127.88617 170.9162 90 211 C 76.235714 188.85891 68.268597 163.67773 55.107422 141.63086 A 47.5 37.5 0 0 0 40 169 A 47.5 37.5 0 0 0 43.349609 182.80273 A 15 12.5 0 0 0 35 194 A 15 12.5 0 0 0 50 206.5 A 15 12.5 0 0 0 62.535156 200.84766 A 47.5 37.5 0 0 0 70.505859 203.97266 A 15 10 0 0 0 70 206.5 A 15 10 0 0 0 85 216.5 A 15 10 0 0 0 89.164062 216.10156 A 45 35 0 0 0 130 236.5 A 45 35 0 0 0 175 201.5 A 45 35 0 0 0 173.85352 193.84375 A 27.5 20 0 0 0 187.5 196.5 A 27.5 20 0 0 0 215 176.5 A 27.5 20 0 0 0 209.38867 164.42188 A 12.5 12.5 0 0 0 215 154 A 12.5 12.5 0 0 0 205.17383 141.79883 A 67.5 55 0 0 0 207.56836 135.89062 A 12.5 7.5 0 0 0 212.5 136.5 A 12.5 7.5 0 0 0 225 129 A 12.5 7.5 0 0 0 212.5 121.5 A 12.5 7.5 0 0 0 209.99023 121.66211 A 67.5 55 0 0 0 210 121.5 A 67.5 55 0 0 0 207.08984 105.67969 A 35 37.5 0 0 0 235 69 A 35 37.5 0 0 0 234.30859 61.671875 z "
       id="path2482-5" />
  </g>
</svg>
